<svg xmlns="http://www.w3.org/2000/svg">
  <symbol id="bars" viewBox="0 0 448 512">
    <path d="M436 124H12c-6.627 0-12-5.373-12-12V80c0-6.627 5.373-12 12-12h424c6.627 0 12 5.373 12 12v32c0 6.627-5.373 12-12 12zm0 160H12c-6.627 0-12-5.373-12-12v-32c0-6.627 5.373-12 12-12h424c6.627 0 12 5.373 12 12v32c0 6.627-5.373 12-12 12zm0 160H12c-6.627 0-12-5.373-12-12v-32c0-6.627 5.373-12 12-12h424c6.627 0 12 5.373 12 12v32c0 6.627-5.373 12-12 12z"/>
  </symbol>
  <symbol id="check" viewBox="0 0 512 512">
    <path d="M435.848 83.466L172.804 346.51l-96.652-96.652c-4.686-4.686-12.284-4.686-16.971 0l-28.284 28.284c-4.686 4.686-4.686 12.284 0 16.971l133.421 133.421c4.686 4.686 12.284 4.686 16.971 0l299.813-299.813c4.686-4.686 4.686-12.284 0-16.971l-28.284-28.284c-4.686-4.686-12.284-4.686-16.97 0z"/>
  </symbol>
  <symbol id="chevron-down" viewBox="0 0 448 512">
    <path d="M441.9 167.3l-19.8-19.8c-4.7-4.7-12.3-4.7-17 0L224 328.2 42.9 147.5c-4.7-4.7-12.3-4.7-17 0L6.1 167.3c-4.7 4.7-4.7 12.3 0 17l209.4 209.4c4.7 4.7 12.3 4.7 17 0l209.4-209.4c4.7-4.7 4.7-12.3 0-17z"/>
  </symbol>
  <symbol id="comments" viewBox="0 0 576 512">
    <path d="M532 386.2c27.5-27.1 44-61.1 44-98.2 0-80-76.5-146.1-176.2-157.9C368.3 72.5 294.3 32 208 32 93.1 32 0 103.6 0 192c0 37 16.5 71 44 98.2-15.3 30.7-37.3 54.5-37.7 54.9-6.3 6.7-8.1 16.5-4.4 25 3.6 8.5 12 14 21.2 14 53.5 0 96.7-20.2 125.2-38.8 9.2 2.1 18.7 3.7 28.4 4.9C208.1 407.6 281.8 448 368 448c20.8 0 40.8-2.4 59.8-6.8C456.3 459.7 499.4 480 553 480c9.2 0 17.5-5.5 21.2-14 3.6-8.5 1.9-18.3-4.4-25-.4-.3-22.5-24.1-37.8-54.8zm-392.8-92.3L122.1 305c-14.1 9.1-28.5 16.3-43.1 21.4 2.7-4.7 5.4-9.7 8-14.8l15.5-31.1L77.7 256C64.2 242.6 48 220.7 48 192c0-60.7 73.3-112 160-112s160 51.3 160 112-73.3 112-160 112c-16.5 0-33-1.9-49-5.6l-19.8-4.5zM498.3 352l-24.7 24.4 15.5 31.1c2.6 5.1 5.3 10.1 8 14.8-14.6-5.1-29-12.3-43.1-21.4l-17.1-11.1-19.9 4.6c-16 3.7-32.5 5.6-49 5.6-54 0-102.2-20.1-131.3-49.7C338 339.5 416 272.9 416 192c0-3.4-.4-6.7-.7-10C479.7 196.5 528 238.8 528 288c0 28.7-16.2 50.6-29.7 64z"/>
  </symbol>
  <symbol id="globe" viewBox="0 0 496 512">
    <path d="M248 8C111 8 0 119 0 256s111 248 248 248 248-111 248-248S385 8 248 8zm179.3 160h-67.2c-6.7-36.5-17.5-68.8-31.2-94.7 42.9 19 77.7 52.7 98.4 94.7zM248 56c18.6 0 48.6 41.2 63.2 112H184.8C199.4 97.2 229.4 56 248 56zM48 256c0-13.7 1.4-27.1 4-40h77.7c-1 13.1-1.7 26.3-1.7 40s.7 26.9 1.7 40H52c-2.6-12.9-4-26.3-4-40zm20.7 88h67.2c6.7 36.5 17.5 68.8 31.2 94.7-42.9-19-77.7-52.7-98.4-94.7zm67.2-176H68.7c20.7-42 55.5-75.7 98.4-94.7-13.7 25.9-24.5 58.2-31.2 94.7zM248 456c-18.6 0-48.6-41.2-63.2-112h126.5c-14.7 70.8-44.7 112-63.3 112zm70.1-160H177.9c-1.1-12.8-1.9-26-1.9-40s.8-27.2 1.9-40h140.3c1.1 12.8 1.9 26 1.9 40s-.9 27.2-2 40zm10.8 142.7c13.7-25.9 24.4-58.2 31.2-94.7h67.2c-20.7 42-55.5 75.7-98.4 94.7zM366.3 296c1-13.1 1.7-26.3 1.7-40s-.7-26.9-1.7-40H444c2.6 12.9 4 26.3 4 40s-1.4 27.1-4 40h-77.7z"/>
  </symbol>
  <symbol id="life-ring" viewBox="0 0 512 512">
    <path d="M256 504c136.967 0 248-111.033 248-248S392.967 8 256 8 8 119.033 8 256s111.033 248 248 248zm-103.398-76.72l53.411-53.411c31.806 13.506 68.128 13.522 99.974 0l53.411 53.411c-63.217 38.319-143.579 38.319-206.796 0zM336 256c0 44.112-35.888 80-80 80s-80-35.888-80-80 35.888-80 80-80 80 35.888 80 80zm91.28 103.398l-53.411-53.411c13.505-31.806 13.522-68.128 0-99.974l53.411-53.411c38.319 63.217 38.319 143.579 0 206.796zM359.397 84.72l-53.411 53.411c-31.806-13.505-68.128-13.522-99.973 0L152.602 84.72c63.217-38.319 143.579-38.319 206.795 0zM84.72 152.602l53.411 53.411c-13.506 31.806-13.522 68.128 0 99.974L84.72 359.398c-38.319-63.217-38.319-143.579 0-206.796z"/>
  </symbol>
  <symbol id="long-arrow-right" viewBox="0 0 448 512">
    <path d="M295.515 115.716l-19.626 19.626c-4.753 4.753-4.675 12.484.173 17.14L356.78 230H12c-6.627 0-12 5.373-12 12v28c0 6.627 5.373 12 12 12h344.78l-80.717 77.518c-4.849 4.656-4.927 12.387-.173 17.14l19.626 19.626c4.686 4.686 12.284 4.686 16.971 0l131.799-131.799c4.686-4.686 4.686-12.284 0-16.971L312.485 115.716c-4.686-4.686-12.284-4.686-16.97 0z"/>
  </symbol>
  <symbol id="newspaper" viewBox="0 0 576 512">
    <path d="M552 64H112c-20.858 0-38.643 13.377-45.248 32H24c-13.255 0-24 10.745-24 24v272c0 30.928 25.072 56 56 56h496c13.255 0 24-10.745 24-24V88c0-13.255-10.745-24-24-24zM48 392V144h16v248c0 4.411-3.589 8-8 8s-8-3.589-8-8zm480 8H111.422c.374-2.614.578-5.283.578-8V112h416v288zM172 280h136c6.627 0 12-5.373 12-12v-96c0-6.627-5.373-12-12-12H172c-6.627 0-12 5.373-12 12v96c0 6.627 5.373 12 12 12zm28-80h80v40h-80v-40zm-40 140v-24c0-6.627 5.373-12 12-12h136c6.627 0 12 5.373 12 12v24c0 6.627-5.373 12-12 12H172c-6.627 0-12-5.373-12-12zm192 0v-24c0-6.627 5.373-12 12-12h104c6.627 0 12 5.373 12 12v24c0 6.627-5.373 12-12 12H364c-6.627 0-12-5.373-12-12zm0-144v-24c0-6.627 5.373-12 12-12h104c6.627 0 12 5.373 12 12v24c0 6.627-5.373 12-12 12H364c-6.627 0-12-5.373-12-12zm0 72v-24c0-6.627 5.373-12 12-12h104c6.627 0 12 5.373 12 12v24c0 6.627-5.373 12-12 12H364c-6.627 0-12-5.373-12-12z"/>
  </symbol>
  <symbol id="phone" viewBox="0 0 512 512">
    <path d="M476.5 22.9L382.3 1.2c-21.6-5-43.6 6.2-52.3 26.6l-43.5 101.5c-8 18.6-2.6 40.6 13.1 53.4l40 32.7C311 267.8 267.8 311 215.4 339.5l-32.7-40c-12.8-15.7-34.8-21.1-53.4-13.1L27.7 329.9c-20.4 8.7-31.5 30.7-26.6 52.3l21.7 94.2c4.8 20.9 23.2 35.5 44.6 35.5C312.3 512 512 313.7 512 67.5c0-21.4-14.6-39.8-35.5-44.6zM69.3 464l-20.9-90.7 98.2-42.1 55.7 68.1c98.8-46.4 150.6-98 197-197l-68.1-55.7 42.1-98.2L464 69.3C463 286.9 286.9 463 69.3 464z"/>
  </symbol>
  <symbol id="search" viewBox="0 0 512 512">
    <path d="M508.5 468.9L387.1 347.5c-2.3-2.3-5.3-3.5-8.5-3.5h-13.2c31.5-36.5 50.6-84 50.6-136C416 93.1 322.9 0 208 0S0 93.1 0 208s93.1 208 208 208c52 0 99.5-19.1 136-50.6v13.2c0 3.2 1.3 6.2 3.5 8.5l121.4 121.4c4.7 4.7 12.3 4.7 17 0l22.6-22.6c4.7-4.7 4.7-12.3 0-17zM208 368c-88.4 0-160-71.6-160-160S119.6 48 208 48s160 71.6 160 160-71.6 160-160 160z"/>
  </symbol>
  <symbol id="times" viewBox="0 0 320 512">
    <path d="M207.6 256l107.72-107.72c6.23-6.23 6.23-16.34 0-22.58l-25.03-25.03c-6.23-6.23-16.34-6.23-22.58 0L160 208.4 52.28 100.68c-6.23-6.23-16.34-6.23-22.58 0L4.68 125.7c-6.23 6.23-6.23 16.34 0 22.58L112.4 256 4.68 363.72c-6.23 6.23-6.23 16.34 0 22.58l25.03 25.03c6.23 6.23 16.34 6.23 22.58 0L160 303.6l107.72 107.72c6.23 6.23 16.34 6.23 22.58 0l25.03-25.03c6.23-6.23 6.23-16.34 0-22.58L207.6 256z"/>
  </symbol>
  <symbol id="trophy" viewBox="0 0 576 512">
    <path d="M448 64V16c0-8.8-7.2-16-16-16H144c-8.8 0-16 7.2-16 16v48H16C7.2 64 0 71.2 0 80v60.8C0 201.1 68.3 266 159.6 283.4c27.4 57.9 68.1 88.2 104.4 97.4V464h-64c-22.1 0-40 17.9-40 40 0 4.4 3.6 8 8 8h240c4.4 0 8-3.6 8-8 0-22.1-17.9-40-40-40h-64v-83.2c36.3-9.3 77-39.5 104.4-97.4C507.5 266.1 576 201.2 576 140.8V80c0-8.8-7.2-16-16-16H448zM48 140.8V112h80c0 39.2 2.1 76.2 12.3 116.8-55.1-18.9-92.3-58.9-92.3-88zM288 336c-53 0-112-78.4-112-216V48h224v72c0 140.5-60.8 216-112 216zm240-195.2c0 29.1-37.2 69.1-92.3 88C445.9 188.2 448 151.1 448 112h80v28.8z"/>
  </symbol>
</svg>